<svg preserveAspectRatio="none" overflow="visible" style="display: block;" width="14" height="12" viewBox="0 0 14 12" fill="none" xmlns="http://www.w3.org/2000/svg">
<g id="Frame" clip-path="url(#clip0_0_5)">
<path id="Vector" d="M12.6562 4H0.65625V11H12.6562V4Z" stroke="white"/>
<g id="Mask group">
<mask id="mask0_0_5" style="mask-type:luminance" maskUnits="userSpaceOnUse" x="4" y="0" width="6" height="4">
<g id="Group">
<path id="Vector_2" fill-rule="evenodd" clip-rule="evenodd" d="M4.15625 3.5C4.15625 1.84315 5.27554 0.5 6.65625 0.5C8.03696 0.5 9.15625 1.84315 9.15625 3.5" fill="white"/>
</g>
</mask>
<g mask="url(#mask0_0_5)">
<path id="Vector_3" d="M5.15625 3.5C5.15625 4.05228 4.70853 4.5 4.15625 4.5C3.60397 4.5 3.15625 4.05228 3.15625 3.5H5.15625ZM10.1562 3.5C10.1562 4.05228 9.70853 4.5 9.15625 4.5C8.60397 4.5 8.15625 4.05228 8.15625 3.5H10.1562ZM3.15625 3.5C3.15625 1.46932 4.56028 -0.5 6.65625 -0.5V1.5C5.99079 1.5 5.15625 2.21697 5.15625 3.5H3.15625ZM6.65625 -0.5C8.75222 -0.5 10.1562 1.46932 10.1562 3.5H8.15625C8.15625 2.21697 7.32171 1.5 6.65625 1.5V-0.5Z" fill="white"/>
</g>
</g>
</g>
<defs>
<clipPath id="clip0_0_5">
<rect width="14" height="12" fill="white"/>
</clipPath>
</defs>
</svg>
